HIERARCHY
ROOT Hips
{
  OFFSET 0 89.5177 0.535
  CHANNELS 6 Xposition Yposition Zposition Zrotation Xrotation Yrotation
  JOINT Spine
  {
    OFFSET 12.0259 -0.162855 1.69034e-005
    CHANNELS 3 Zrotation Xrotation Yrotation
    JOINT Spine1
    {
      OFFSET 15.3169 -0.0121922 0
      CHANNELS 3 Zrotation Xrotation Yrotation
      JOINT Spine2
      {
        OFFSET 15.3176 -0.0121908 0
        CHANNELS 3 Zrotation Xrotation Yrotation
        JOINT Neck
        {
          OFFSET 19.9142 1.56338 0
          CHANNELS 3 Zrotation Xrotation Yrotation
          JOINT Head
          {
            OFFSET 6.92651 0 0
            CHANNELS 3 Zrotation Xrotation Yrotation
            End Site
            {
              OFFSET 20.7666 0 0
            }
          }
          JOINT LeftShoulder
          {
            OFFSET -6.20654 0.708824 7.28219
            CHANNELS 3 Zrotation Xrotation Yrotation
            JOINT LeftArm
            {
              OFFSET 14.108 0 -1.52588e-005
              CHANNELS 3 Zrotation Xrotation Yrotation
              JOINT LeftForeArm
              {
                OFFSET 28.5802 0 0
                CHANNELS 3 Zrotation Xrotation Yrotation
                JOINT LeftHand
                {
                  OFFSET 27.092 0 0
                  CHANNELS 3 Zrotation Xrotation Yrotation
                  End Site
                  {
                    OFFSET 9.55928 -0.186424 0.145352
                  }
                }
              }
            }
          }
          JOINT RightShoulder
          {
            OFFSET -6.20654 0.708866 -7.28218
            CHANNELS 3 Zrotation Xrotation Yrotation
            JOINT RightArm
            {
              OFFSET 14.108 0 1.52588e-005
              CHANNELS 3 Zrotation Xrotation Yrotation
              JOINT RightForeArm
              {
                OFFSET 28.5802 0 0
                CHANNELS 3 Zrotation Xrotation Yrotation
                JOINT RightHand
                {
                  OFFSET 27.092 0 0
                  CHANNELS 3 Zrotation Xrotation Yrotation
                  End Site
                  {
                    OFFSET 9.55929 -0.186417 -0.145354
                  }
                }
              }
            }
          }
        }
      }
    }
  }
  JOINT LeftUpLeg
  {
    OFFSET 0.005 -0.535 8.837
    CHANNELS 3 Zrotation Xrotation Yrotation
    JOINT LeftLeg
    {
      OFFSET 39.9035 0 0
      CHANNELS 3 Zrotation Xrotation Yrotation
      JOINT LeftFoot
      {
        OFFSET 39.6689 0 0
        CHANNELS 3 Zrotation Xrotation Yrotation
        JOINT LeftToe
        {
          OFFSET 10.1624 13.6296 0
          CHANNELS 3 Zrotation Xrotation Yrotation
          End Site
          {
            OFFSET 8.38147 0 0
          }
        }
      }
    }
  }
  JOINT RightUpLeg
  {
    OFFSET 0.005 -0.535 -8.837
    CHANNELS 3 Zrotation Xrotation Yrotation
    JOINT RightLeg
    {
      OFFSET 39.9035 0 0
      CHANNELS 3 Zrotation Xrotation Yrotation
      JOINT RightFoot
      {
        OFFSET 39.6689 0 0
        CHANNELS 3 Zrotation Xrotation Yrotation
        JOINT RightToe
        {
          OFFSET 10.1624 13.6296 0
          CHANNELS 3 Zrotation Xrotation Yrotation
          End Site
          {
            OFFSET 8.38147 0 0
          }
        }
      }
    }
  }
}
MOTION
Frames:	6
Frame Time:	0.0333333
177.86 90.1889 -171.61 -164.559 -85.4686 106.622 -0.722443 -1.33428 -0.813104 -1.46434 -2.65759 -1.64346 -1.46434 -2.65759 -1.64347 -8.30688e-012 -9.0191e-006 -5.27751e-005 18.7062 2.30165 -0.089619 -178.046 -26.9833 -85.699 -14.5686 -54.674 18.1359 -7.67487 -3.18055e-015 -1.59028e-015 -24.9671 -33.1696 -23.9768 -178.084 21.1068 84.692 -31.618 32.3739 0.503912 -6.51073 1.27222e-014 -0 -74.9315 62.9288 79.2928 -2.81507 12.3029 -178.447 -8.20148 -6.36111e-015 -3.97569e-016 11.654 5.24779 -8.32671 90 -7.45443e-016 -1.59028e-015 -3.71642 -10.3581 177.969 -5.31199 1.59028e-015 -0 8.70166 -3.02373 4.76947 90 1.49089e-016 4.77083e-015 
177.858 90.1859 -171.662 -164.516 -85.4545 106.637 -0.721147 -1.33449 -0.810115 -1.46168 -2.65807 -1.63745 -1.46168 -2.65807 -1.63746 -8.30768e-012 -9.0191e-006 -5.27751e-005 18.6529 2.28787 -0.0827947 -178.033 -27.0022 -85.6747 -14.6941 -54.54 18.0303 -7.74506 -9.54166e-015 -0 -24.9708 -33.256 -24.0039 -178.078 21.108 84.6757 -31.6291 32.2425 0.542838 -6.59974 -3.18055e-015 -0 -75.172 62.9499 79.5633 -2.79419 12.3177 -178.419 -8.19647 0 -7.95139e-016 11.6992 5.25362 -8.33665 90 1.14301e-015 -2.38542e-015 -3.6531 -10.2784 178.015 -5.23304 -1.59028e-015 3.97569e-016 8.66419 -2.95239 4.65671 90 -5.46658e-016 -1.59028e-015 
177.838 90.1836 -171.718 -164.599 -85.4314 106.551 -0.727589 -1.33437 -0.810305 -1.47515 -2.6587 -1.65313 -1.47515 -2.6587 -1.65314 -8.30768e-012 -9.0191e-006 -5.27751e-005 18.6491 2.31057 -0.0699933 -178.053 -27.0078 -85.7193 -14.7247 -54.4807 18.0371 -7.78369 0 -4.77083e-015 -24.9854 -33.2616 -24.0161 -178.069 21.1155 84.6534 -31.6785 32.2996 0.551198 -6.57581 -6.36111e-015 -0 -75.0801 62.9105 79.4578 -2.77948 12.3392 -178.43 -8.19886 -3.18055e-015 3.97569e-016 11.7293 5.26444 -8.3544 90 5.46658e-016 7.95139e-016 -3.65091 -10.3768 177.987 -5.25142 3.18056e-015 -0 8.71289 -3.03025 4.78008 90 8.44835e-016 -0 
177.825 90.1826 -171.761 -164.783 -85.3868 106.364 -0.733828 -1.33404 -0.810835 -1.48724 -2.65938 -1.64216 -1.48724 -2.65938 -1.64217 -8.30768e-012 -9.0191e-006 -5.27751e-005 18.629 2.32535 -0.155973 -178.008 -27.0216 -85.6213 -14.8881 -54.4709 17.893 -7.7606 -9.54166e-015 -3.18055e-015 -25.0296 -33.3291 -24.0708 -178.066 21.1569 84.6561 -31.8099 32.2466 0.620826 -6.53919 -3.18055e-015 7.95139e-016 -75.1129 62.9485 79.503 -2.78912 12.3407 -178.431 -8.18157 -1.59028e-015 -7.95139e-016 11.7319 5.2853 -8.38799 90 8.69683e-016 7.95139e-016 -3.66791 -10.3532 177.98 -5.25381 4.77083e-015 -0 8.72774 -3.03323 4.78493 90 2.48481e-016 -0 
177.804 90.1822 -171.817 -164.912 -85.3695 106.232 -0.736873 -1.33351 -0.811647 -1.49322 -2.65968 -1.64 -1.49322 -2.65968 -1.64001 -8.30748e-012 -9.0191e-006 -5.27751e-005 18.6418 2.26728 -0.159797 -178.009 -27.0347 -85.6271 -14.8633 -54.5672 17.9403 -7.69927 6.36111e-015 -7.95139e-015 -24.9812 -33.2511 -24.0142 -178.083 21.1272 84.6945 -31.7343 32.1687 0.59075 -6.6326 1.59028e-014 1.59028e-015 -75.2695 62.9577 79.6792 -2.75655 12.3416 -178.455 -8.16542 -1.59028e-015 7.95139e-016 11.756 5.26983 -8.36355 90 7.45443e-017 -0 -3.64656 -10.3628 177.969 -5.23576 1.59028e-015 -1.98785e-016 8.72264 -3.02109 4.76573 90 -2.48481e-016 -3.18055e-015 
177.784 90.1815 -171.865 -165.335 -85.3242 105.806 -0.746946 -1.33284 -0.81268 -1.5136 -2.6543 -1.65094 -1.5136 -2.6543 -1.65095 -8.30708e-012 -9.0191e-006 -5.27751e-005 18.6465 2.28049 -0.139403 -178.03 -27.0266 -85.67 -14.8768 -54.5851 17.9658 -7.66451 -9.54166e-015 -0 -25.034 -33.3799 -24.0955 -178.073 21.1661 84.6767 -31.7369 32.1709 0.568939 -6.65206 3.18055e-015 -7.95139e-016 -75.3137 62.9416 79.7281 -2.77836 12.3069 -178.462 -8.16495 0 7.95139e-016 11.7758 5.25772 -8.34439 90 -6.21202e-016 -7.95139e-016 -3.64676 -10.3383 177.968 -5.2032 3.18056e-015 7.95139e-016 8.72511 -3.00189 4.73553 90 0 -1.59028e-015 
